<?xml version="1.0" standalone="no"?>
<!DOCTYPE svg PUBLIC "-//W3C//DTD SVG 20010904//EN"
 "http://www.w3.org/TR/2001/REC-SVG-20010904/DTD/svg10.dtd">
<svg version="1.0" xmlns="http://www.w3.org/2000/svg"
 width="512.000000pt" height="512.000000pt" viewBox="0 0 512.000000 512.000000"
 preserveAspectRatio="xMidYMid meet">
<metadata>
Created by potrace 1.11, written by Peter Selinger 2001-2013
</metadata>
<g transform="translate(0.000000,512.000000) scale(0.100000,-0.100000)"
fill="#000000" stroke="none">
<path d="M990 5105 c-41 -8 -85 -16 -97 -19 -13 -3 -31 -8 -40 -10 -105 -24
-279 -109 -384 -189 -70 -52 -158 -136 -212 -202 -88 -108 -175 -280 -213
-420 -13 -49 -17 -68 -30 -155 -12 -71 -12 -3038 -1 -3109 11 -71 13 -78 27
-131 55 -209 169 -403 323 -550 171 -161 402 -273 637 -307 69 -10 3047 -11
3115 -1 28 5 60 10 73 13 12 3 30 7 41 9 231 52 475 206 634 401 94 115 196
323 222 450 5 22 10 47 11 55 2 8 7 38 11 65 10 64 10 3044 0 3110 -7 50 -12
74 -23 118 -3 12 -6 27 -8 32 -34 140 -135 330 -241 453 -139 162 -385 317
-566 358 -11 2 -29 6 -41 10 -13 3 -33 7 -45 10 -13 2 -35 7 -50 11 -16 4
-712 8 -1548 9 -1235 2 -1534 0 -1595 -11z"/>
</g>
</svg>
